<?xml version="1.0" encoding="UTF-8"?>
<!DOCTYPE svg PUBLIC "-//W3C//DTD SVG 1.1//EN" "http://www.w3.org/Graphics/SVG/1.1/DTD/svg11.dtd">
<!-- Creator: CorelDRAW 2019 (64-Bit) -->
<svg xmlns="http://www.w3.org/2000/svg" xml:space="preserve" width="186.774mm" height="63.4071mm" version="1.1" style="shape-rendering:geometricPrecision; text-rendering:geometricPrecision; image-rendering:optimizeQuality; fill-rule:evenodd; clip-rule:evenodd"
viewBox="0 0 183.296 62.2264"
 xmlns:xlink="http://www.w3.org/1999/xlink"
 xmlns:xodm="http://www.corel.com/coreldraw/odm/2003">
 <defs>
  <style type="text/css">
   <![CDATA[
    .fil2 {fill:#FEFEFE}
    .fil7 {fill:#FDFEFE}
    .fil6 {fill:#C7E4DD}
    .fil12 {fill:#ADC2C2}
    .fil5 {fill:#A5D5C6}
    .fil9 {fill:#9FB7B8}
    .fil13 {fill:#7F9D9D}
    .fil0 {fill:#39B188}
    .fil11 {fill:#06735F}
    .fil10 {fill:#026E5D}
    .fil8 {fill:#023E3D}
    .fil4 {fill:#023D3D}
    .fil1 {fill:#023C3C}
    .fil3 {fill:#033B3B}
   ]]>
  </style>
 </defs>
 <g id="Layer_x0020_1">
  <metadata id="CorelCorpID_0Corel-Layer"/>
  <g id="_652543216">
   <path class="fil0" d="M38.7593 57.1673c-0.6501,0.5161 -1.5182,0.9956 -2.4903,0.2942 -1.8167,-1.3105 -0.1488,-4.1745 1.8954,-3.1405 0.8305,0.4201 1.098,1.1466 0.8773,2.3825 0.2594,0.112 0.4366,0.2015 0.6367,0.378 -0.1126,0.2538 -0.071,0.2174 -0.2748,0.4241l-0.6443 -0.3383zm-6.9204 5.0591l0 0c3.3273,-0.0687 6.6585,-0.6383 9.5807,-1.7313 1.8074,-0.676 3.5296,-1.5005 5.2316,-2.4057 1.2202,-0.6489 2.3374,-1.4583 3.4296,-2.2983l3.311 -2.9899c0.0825,-0.0997 0.142,-0.1483 0.2361,-0.2413 1.129,-1.117 2.1386,-2.3306 3.0219,-3.6606 0.527,-0.7936 1.0218,-1.5246 1.4867,-2.332 0.946,-1.6431 1.7775,-3.4567 2.3769,-5.2603 0.1631,-0.4908 0.3292,-0.9686 0.4788,-1.4306 1.6941,-5.2264 1.6594,-12.2436 0.0243,-17.4729 -0.0845,-0.2702 -0.1543,-0.4241 -0.2398,-0.7149l-0.742 -2.1219c-0.1806,-0.454 -0.3881,-0.8706 -0.5723,-1.3371 -1.0161,-2.5756 -2.7587,-4.8563 -4.4171,-7.0388l-0.8914 -1.0179c-0.1834,-0.1814 -0.2953,-0.2956 -0.4783,-0.4765l-0.4835 -0.5666c-0.1646,-0.1866 -0.3029,-0.2217 -0.5201,-0.4345l-1.4776 -1.3865c-0.83,-0.7492 -1.7848,-1.4306 -2.7155,-2.0579 -1.7536,-1.1822 -3.6477,-2.1891 -5.6145,-2.9775 -7.4984,-3.0062 -15.9124,-3.0423 -23.43,-0.0407 -2.1927,0.8755 -4.1704,2.0299 -6.1267,3.3245 -0.9302,0.6157 -1.766,1.3646 -2.6319,2.046 -0.1938,0.1524 -0.3012,0.3002 -0.4828,0.4718 -0.6263,0.5923 -1.3688,1.1344 -1.8875,1.8357 -0.2867,0.3878 -0.5752,0.585 -0.8984,1.011 -1.2301,1.6226 -2.5548,3.1623 -3.4947,5.0018 -0.1107,0.2168 -0.1818,0.3972 -0.324,0.6308 -0.6809,1.1199 -1.3149,2.6178 -1.7397,3.8929 -1.0495,3.1521 -1.8488,5.982 -1.8488,9.6069 0,5.0815 0.5041,8.3664 2.3315,12.9431l0.5888 1.3204c0.8448,2.0815 2.2539,4.0813 3.5859,5.8654 0.1661,0.2226 0.2556,0.3116 0.4232,0.5314 0.7992,1.0486 1.7464,2.0228 2.6871,2.9455 0.2274,0.223 0.3071,0.2302 0.5276,0.4271l6.1167 4.3846c2.5499,1.2652 4.6923,2.1998 7.5094,2.8964 2.1136,0.5227 4.3957,0.8111 6.7071,0.8582l1.3617 0zm0.8159 -5.7961l0 0c0.2399,-0.1393 0.5823,-0.137 0.9479,-0.1062l-0.0077 0.5517 -0.3684 0.0085 -1.2591 0.0409 0.0225 1.0271c0.3185,0.0046 0.6279,-0.012 0.946,-0.0329 1.1772,-0.0776 0.7202,-0.0304 0.8938,0.1064l0.0156 0.2864c-0.3439,0.1976 -1.8505,0.2389 -2.4118,0.1905l-0.1802 -3.5655c0.4062,-0.0137 0.7969,-0.0346 1.2024,-0.0562 0.5211,-0.0279 0.8827,-0.143 1.1921,0.09l0.0153 0.2864c-0.3776,0.2103 -1.3451,0.1718 -1.797,0.1902l0.0468 0.9401 0.7417 0.0427zm-5.9605 1.2138l0 0 0.3519 -0.3478c0.2045,0.1778 0.2283,0.3274 0.5385,0.4476 0.3865,0.1498 0.6336,0.1123 0.908,-0.0561 0.6803,-1.0555 -1.5187,-0.7278 -1.3601,-2.1287 0.0602,-0.5311 0.4469,-0.8387 1.0339,-0.8586 0.2829,-0.0095 0.5446,0.0545 0.7682,0.1667 0.473,0.2375 0.4343,0.4182 0.4777,0.5219l-0.389 0.2461c-0.2743,-0.1678 -0.3904,-0.3715 -0.7728,-0.3838 -0.347,-0.0113 -0.6671,0.2112 -0.4758,0.578 0.2052,0.393 1.1068,0.5087 1.349,1.0438 0.6097,1.3466 -1.4295,2.2121 -2.4295,0.7709zm-8.1475 -2.1225l0 0c0.1254,-0.4161 1.267,-3.0955 1.4796,-3.2797 0.4448,0.2147 0.2792,-0.1112 0.4617,1.2303 0.0672,0.4941 0.1449,0.9807 0.1854,1.4676 0.4463,-0.1855 0.785,-0.5044 1.1649,-0.7564 1.0242,-0.6798 0.7858,-0.763 1.3841,-0.5624l-1.4688 3.2963 -0.4929 -0.2407 0.8199 -1.9792c-0.3327,0.1218 -0.5308,0.3245 -0.8189,0.532 -0.4702,0.3384 -0.9095,0.6882 -1.0658,-0.0159l-0.2278 -1.481 -0.8737 2.0258 -0.5478 -0.2364zm21.726 -2.3793l0 0 0.4506 -0.2267c0.8292,1.0621 0.8626,3.0044 2.1682,2.3692 1.0276,-0.5 -0.3061,-2.3591 -0.6207,-3.1206l0.5176 -0.2293c0.3036,0.5186 0.6848,1.3656 0.9554,1.9684 0.7673,1.7096 -1.626,2.9806 -2.5626,1.2226 -0.2123,-0.3984 -0.8175,-1.5901 -0.9085,-1.9837zm4.5965 -2.5522l0 0c0.2616,0.2495 1.8807,2.6286 2.0114,2.9593l-0.4885 0.2684c-0.2627,-0.5576 -1.7365,-2.382 -1.9789,-2.9587l0.456 -0.2691zm-28.3537 -0.5752l0 0c0.357,0.1181 1.6757,1.1053 1.9202,1.3291l-0.1917 0.4023c-0.5633,-0.1724 -1.0274,-0.7573 -1.5376,-0.9552 -0.2606,0.2226 -0.3845,0.4873 -0.5311,0.7267 0.3774,0.3626 0.9311,0.5956 1.3,0.9883l-0.2916 0.354c-0.4512,-0.1962 -0.8297,-0.6113 -1.3365,-0.8532 -0.2104,0.1932 -0.4126,0.5364 -0.5514,0.7683 0.9154,1.0462 1.6184,0.6087 1.2422,1.4803 -0.3464,-0.0866 -1.594,-0.9552 -1.9433,-1.2786l-0.0919 -0.1063 2.0127 -2.8557zm-3.5001 1.0894l0 0c-0.967,-0.0811 -1.4042,-0.4796 -1.7061,-1.1471 -0.3544,-0.7834 0.0105,-1.6544 0.4389,-2.0449 1.2381,-1.1288 3.0305,-0.3172 3.1219,1.3271l-0.4547 0.0089c-0.0823,-0.1044 -0.0408,-0.0261 -0.1108,-0.1903 -0.0515,-0.1212 -0.0205,-0.0907 -0.0654,-0.2134 -0.1086,-0.2978 -0.3218,-0.6115 -0.6606,-0.768 -1.0282,-0.4753 -2.2635,0.7391 -1.6909,1.7825 0.3663,0.6672 0.8334,0.4819 1.131,0.8157l-0.0033 0.4295zm34.147 -1.8653l0 0c0.25,0.0658 0.4404,0.112 0.6822,0.1735 0.4598,0.117 0.9194,0.2659 1.4031,0.3484 -0.2121,-1.3558 -0.8086,-2.3994 -0.2733,-2.7668l2.4854 2.5499 -0.3852 0.3474c-0.5257,-0.4061 -0.8556,-0.9378 -1.556,-1.471 0.0463,0.3528 0.1104,0.5936 0.1935,0.9479 0.0825,0.3529 0.1382,0.4266 0.0996,0.7037 -0.0024,0.0171 -0.0255,0.0829 -0.0282,0.0699 -0.0026,-0.0132 -0.0211,0.0465 -0.0346,0.0681 -0.2526,0.3506 -0.9064,-0.0522 -1.8638,-0.2248 0.2419,0.5363 1.1571,0.9829 1.4622,1.6548 -0.149,0.1206 -0.2406,0.2103 -0.4014,0.3278l-1.3069 -1.2936c-0.2088,-0.2212 -2.047,-1.8483 -0.4766,-1.4353zm6.3001 -3.1474l0 0c0.4865,-0.757 -0.1685,-1.1439 -0.6435,-1.4591 -0.4753,-0.3152 -0.9437,-0.6161 -1.4231,-0.9608l0.347 -0.4615c0.5273,0.284 1.3611,0.8666 1.8538,1.2219 1.4509,1.0461 0.0012,3.4136 -1.7083,2.2801 -0.4086,-0.2709 -1.4172,-0.8704 -1.7426,-1.2023l0.2771 -0.4448c1.0869,0.5118 2.3809,2.0513 3.0395,1.0264zm-41.9384 -0.4064l0 0c-0.8565,0.5408 -2.4661,1.9872 -3.3439,0.5344 -0.9099,-1.5057 0.8466,-2.4191 2.2568,-3.1975l0.3025 0.4488c-1.1857,0.978 -2.7283,1.3556 -2.1042,2.3826 0.6853,1.1279 1.8529,-0.3848 3.0117,-0.9252l0.3104 0.4006 -0.4332 0.3564zm41.0791 -4.1751l0 0c0.6146,-2.752 2.6443,-2.2883 2.4575,-0.5206l1.8358 -0.5279c-0.3804,1.1523 -0.3048,0.4812 -2.1804,1.2286 0.1865,0.2797 1.0133,0.5751 1.3882,0.6638l-0.2658 0.5642 -3.2352 -1.4081zm-47.0449 -0.4773l0 0c0.2528,-0.2309 2.8609,-1.3531 3.2996,-1.4306l0.171 0.5157 -2.7568 1.1539c0.1349,0.5527 0.5626,1.1585 0.5857,1.6333l-0.3661 0.1458 -0.9334 -2.0182zm50.901 -5.2853l0 0c0.1577,0.5964 -0.2233,0.8749 -0.5567,0.5535 -0.3503,-0.3377 -0.0416,-0.6916 0.5567,-0.5535zm-50.101 0.5705l0 0c-0.9147,0.4751 -0.9177,-0.9475 0.0516,-0.5136l-0.0516 0.5136zm9.1743 -17.4768l0 0c-0.6245,1.1967 -1.3027,1.4716 -2.6667,4.6029 -0.7463,1.713 -1.2692,3.8103 -1.4572,5.8882 -0.4697,5.1894 1.2573,10.4608 4.1501,13.9941 0.2777,0.3392 0.5537,0.6608 0.8219,0.9933l1.3163 1.3522c2.8043,2.5292 7.4206,4.5146 10.9542,6.4266 3.1901,1.7259 1.8033,1.568 4.8687,0.0228 1.9395,-0.9777 8.0864,-4.1701 9.4323,-5.1781 1.2896,-0.9661 2.704,-2.3169 3.6763,-3.5762 4.3075,-5.579 5.5697,-12.9662 2.751,-19.8266 -0.3375,-0.821 -0.7731,-1.7224 -1.2063,-2.4215l-1.4895 -2.2108 -0.0208 -3.8951c-0.6061,-0.1539 -3.2775,-0.0627 -4.0694,-0.0568 -0.497,-0.1841 -1.9965,-1.4993 -5.006,-2.5377 -4.9841,-1.7199 -10.9033,-1.3777 -15.5587,1.0995 -1.0241,0.5448 -1.6089,1.0092 -2.3719,1.435l-4.0716 0.0293 -0.0528 3.8591zm39.3699 10.1885l0 0c0.721,-0.0193 3.0251,-0.1926 3.5645,-0.067 0.032,0.8311 0.1988,1.9005 -0.3699,2.2873 -0.3086,0.2098 -0.7914,0.2258 -1.1274,0.0662 -0.3043,-0.1448 -0.4198,-0.4062 -0.4914,-0.8119 -0.5946,0.2202 -0.9251,0.929 -1.5196,1.1859l0.0073 -0.6814c0.3311,-0.3116 1.3194,-1.0193 1.4515,-1.4366l-1.5379 0.0495 0.023 -0.592zm-50.7119 2.272l0 0 -0.5279 -0.0415c-0.0228,-0.1764 -0.0507,-0.1367 -0.0143,-0.3428 0.0343,-0.1938 0.04,-0.1144 0.1144,-0.2301 1.1063,-0.0609 3.117,0.5667 3.0348,-0.8227 -0.0399,-0.6767 -0.6103,-0.7556 -1.2631,-0.785 -0.288,-0.013 -0.5638,-0.0269 -0.8529,-0.0385l-0.8352 -0.0973c-0.0154,-0.0325 -0.052,-0.0223 -0.0775,-0.0352l0.0184 -0.4957c1.5311,0.0474 3.3321,-0.1958 3.5596,1.2643 0.1126,0.7227 -0.3168,1.3697 -0.8047,1.5699 -0.5821,0.2388 -1.6771,0.0228 -2.3515,0.0546zm53.4918 -7.1135l0 0c0.2704,2.2853 0.9369,2.2958 -0.0462,2.4309l-0.3639 -1.7443 -0.9473 0.1994 0.3311 1.6392 -0.4262 0.0669c-0.2574,-0.3486 -0.2991,-1.0761 -0.4185,-1.579l-1.0046 0.2068 0.3692 1.8 -0.5289 0.0495 -0.4678 -2.3161 3.5031 -0.7533zm-53.5095 1.761l0 0c0.0952,-0.5316 0.4849,-0.5278 1.387,-0.9308 0.4695,-0.2098 1.0422,-0.4056 1.4738,-0.684l-2.3415 -0.5977 0.1823 -0.5496 3.4386 0.8329c-0.0825,0.572 -0.0101,0.4077 -1.3544,0.9665 -0.4671,0.1942 -1.0926,0.466 -1.5021,0.686 0.6548,0.3627 1.6548,0.2677 2.2899,0.6598l-0.088 0.5148c-0.7009,-0.1282 -3.0322,-0.6342 -3.4857,-0.8979zm1.7283 -5.6675l0 0 3.3348 1.4091 -0.2623 0.4888c-0.5701,-0.209 -2.882,-1.1022 -3.2437,-1.3871l0.1712 -0.5108zm47.1293 1.5006l0 0c0.6479,-0.4236 1.9834,-0.8187 2.7854,-1.2085l-0.3988 -1.1149 0.4307 -0.1333 0.6093 1.3347c0.1739,0.4405 0.4273,0.9306 0.5258,1.3601l-0.4398 0.1614c-0.2201,-0.3325 -0.2635,-0.6859 -0.5157,-1.0396l-2.7948 1.1245 -0.2023 -0.4844zm-46.0562 -3.6892l0 0 2.7051 0.4192c-0.2835,-0.4798 -0.5158,-0.6866 -0.8374,-1.1175 -0.2319,-0.3108 -0.6487,-0.7826 -0.8173,-1.0924l0.2401 -0.4879c0.0228,0.0157 0.0519,0.0369 0.0669,0.0495l1.2882 1.6111c0.9044,1.1578 1.0911,1.1112 0.9065,1.738l-3.8271 -0.5548c0.0405,-0.275 0.0896,-0.2939 0.275,-0.5653zm43.7024 -0.6405l0 0c0.0158,-0.0181 0.0367,-0.0432 0.0474,-0.0537 0.0108,-0.0104 0.035,-0.0394 0.0487,-0.0517l1.4013 -0.8969c0.424,-0.2769 1.0599,-0.7272 1.4782,-0.9096 0.2783,0.3074 1.1266,1.5982 1.2774,2.0377l-0.4433 0.196 -0.927 -1.5052 -0.7766 0.5152c0.1474,0.5275 0.5983,0.9001 0.7988,1.4703l-0.4068 0.1678c-0.3983,-0.4005 -0.507,-0.945 -0.9442,-1.3122l-0.7801 0.5333c0.2052,0.5616 0.6726,0.9494 0.8962,1.5576l-0.413 0.2148c-0.2902,-0.3243 -1.066,-1.5697 -1.257,-1.9634zm-41.2194 -3.1245l0 0c0.1418,-0.3336 1.2215,-1.5279 1.5342,-1.8472l0.3676 0.2647c-0.1454,0.3667 -0.8607,1.0703 -1.1128,1.4428 0.2329,0.1869 0.4616,0.4584 0.7576,0.5845l1.0247 -1.1915c0.2402,0.1559 0.2207,0.0999 0.3682,0.3474 -0.2427,0.2538 -0.3077,0.3174 -0.5233,0.6027 -0.2196,0.2907 -0.3287,0.295 -0.4964,0.6308 0.2392,0.1723 0.4868,0.4386 0.7469,0.5922 0.1749,-0.1009 0.0611,-0.0068 0.2237,-0.1779l1.0079 -1.1467c0.1934,0.1376 0.2022,0.1795 0.3536,0.3387l-1.5869 1.8097c-0.8677,-0.7797 -1.7825,-1.5344 -2.665,-2.25zm40.6668 -2.9921l0 0c0.7965,0.5163 0.3069,0.9883 0.1696,2.0586 0.7445,-0.082 1.3887,-0.3186 1.6851,-0.0991l0.2824 0.3752 -2.0185 0.284 -0.5294 2.1603 -0.4429 -0.4802 0.3741 -1.6789 -1.831 0.1803 -0.2753 -0.4448 2.162 -0.3083 0.4238 -2.0472zm-37.2539 -0.7939l0 0c0.4663,-0.264 1.1925,-1.1438 1.8933,-1.057 0.5067,0.0628 1.3377,0.6703 0.5904,1.7623l0.4355 0.1632c0.3519,0.0785 1.1302,0.1712 1.3487,0.3141 -0.8045,0.9582 -1.7221,-0.2246 -2.4992,0.1164 0.23,0.3615 0.7636,0.8734 0.9138,1.2351l-0.469 0.2684 -2.2135 -2.8024zm31.5555 0.7273l0 0c0.3502,-0.4718 0.6851,-0.9193 1.0529,-1.4184 0.2629,-0.3569 0.8291,-1.0288 0.9857,-1.4068 0.3018,0.094 1.8158,1.1857 1.9427,1.4623l-0.1651 0.3374c-0.6028,-0.1702 -0.9828,-0.8094 -1.5589,-0.9872 -0.2347,0.246 -0.3867,0.466 -0.5352,0.6841 0.3992,0.4016 0.8722,0.6086 1.2715,1.0273l-0.218 0.3806c-0.5193,-0.2114 -0.843,-0.6485 -1.3774,-0.9093l-0.5664 0.808c0.4699,0.4331 1.0444,0.7109 1.3617,1.0977l-0.1843 0.3794c-0.3859,-0.1363 -1.7588,-1.1862 -2.0093,-1.455zm-26.0889 -1.2398l0 0c0.2989,-0.0122 0.5151,0.064 0.8559,-0.1149 0.211,-0.1108 0.5068,-0.3449 0.3424,-0.7187 -0.229,-0.521 -1.2606,-0.0383 -1.816,-0.2088 -1.0565,-0.3244 -0.793,-2.3165 1.201,-2.0241 -0.0949,0.9566 -0.1493,0.3269 -0.8343,0.5976 -0.3971,0.1569 -0.4683,0.4935 -0.263,0.7596 0.5408,0.2889 0.9904,-0.1087 1.5855,0.0367 1.4959,0.3657 0.5878,2.8469 -1.3479,2.1168l0.1128 -0.4238 0.1637 -0.0204zm17.338 -5.9014l0 0c2.4149,-0.4214 2.9429,3.2228 0.662,3.641 -2.4563,0.4504 -3.0458,-3.2251 -0.662,-3.641zm4.6925 1.1463l0 0 2.1486 0.9181 -0.1722 0.4536 -1.6144 -0.606 -0.3225 0.8156c0.3346,0.3401 1.0229,0.4258 1.4773,0.6894l-0.1652 0.4889 -1.5614 -0.593 -0.5741 1.3887 -0.5136 -0.2596 1.2974 -3.2958zm-18.8511 0.1774l0 0 1.2729 3.323 -0.5442 0.1949 -1.2648 -3.3526 0.536 -0.1654zm1.7959 -0.6009l0 0c0.3665,-0.2905 2.2172,-0.6219 2.8278,-0.7404l0.0937 0.5259c-0.3707,0.0718 -0.788,0.1481 -1.0883,0.3144l0.6683 2.9438 -0.5478 0.0823 -0.7094 -2.9319 -1.1359 0.247 -0.1084 -0.4413zm6.7688 -1.1561l0 0 0.6441 -0.0345c-0.1551,0.486 -0.5997,1.1683 -0.8659,1.6496 -0.3941,0.713 -0.1563,1.114 -0.146,2.0188l-0.5787 0.0073c-0.0652,-1.1382 0.0526,-1.3499 -0.5116,-2.0869 -0.2225,-0.2905 -0.9262,-1.1487 -0.9769,-1.3898l0.6119 -0.0397c0.1432,0.2244 0.7846,1.165 1.0648,1.3254l0.7583 -1.4501z"/>
   <path class="fil1" d="M30.7349 49.0173c1.1664,-0.4368 1.7469,1.2994 0.7199,1.7087 -1.2093,0.4821 -1.8993,-1.267 -0.7199,-1.7087zm-6.32 -3.0608l0 0c1.1857,-0.5268 1.8569,1.3084 0.7424,1.7124 -1.1562,0.4191 -1.8236,-1.2319 -0.7424,-1.7124zm12.5639 0.0346l0 0c1.1696,-0.5547 1.7852,1.2141 0.7661,1.6667 -0.5817,0.2582 -1.1217,-0.1109 -1.2768,-0.5191 -0.1807,-0.4754 0.0244,-0.917 0.5107,-1.1475zm-5.8568 -2.4549l0 0c0.6607,0.3116 1.3288,0.6982 1.9924,1.0438 0.5442,0.2836 1.4821,0.7579 1.8879,1.0831l-3.8938 2.0611 -3.8894 -2.1177 3.9029 -2.0703zm11.2871 -1.5712l0 0c1.1517,-0.3563 1.6878,1.4469 0.4925,1.7798 -1.1274,0.314 -1.7624,-1.3869 -0.4925,-1.7798zm-23.1627 0.0312l0 0c1.1923,-0.5442 1.6862,1.2323 0.7569,1.6681 -0.6011,0.2819 -1.1621,-0.0825 -1.313,-0.5147 -0.1276,-0.3652 -0.0166,-0.7979 0.2641,-1.0123 0.1688,-0.129 0.0922,-0.05 0.292,-0.1411zm22.3193 -4.079l0 0 -6.7302 3.5783 3.9237 2.1581c0.9411,-0.3936 1.7611,-1.2333 2.1916,-2.0528 0.6738,-1.2827 0.6148,-2.1019 0.6148,-3.6836zm-18.081 5.7363l0 0c0.5058,-0.2139 3.7069,-1.9301 3.9082,-2.153l-6.7243 -3.6365c-0.0234,1.6033 -0.1009,2.3942 0.5731,3.6906 0.3925,0.755 1.3414,1.8281 2.2429,2.099zm19.8346 -7.3431l0 0c1.2205,-0.4242 1.6335,1.4529 0.5821,1.7684 -1.2597,0.378 -1.7221,-1.3722 -0.5821,-1.7684zm-25.1546 0.0323l0 0c1.0558,-0.5327 1.8461,1.1434 0.7662,1.6664 -1.0362,0.5019 -2.0287,-1.0293 -0.7662,-1.6664zm2.4843 -16.2231l0 0 20.915 -0.0008 0.006 13.468 -0.0475 0.3501 -10.4147 5.6171 -10.4588 -5.6803 0 -13.7541zm22.5808 9.8974l0 0c1.206,-0.5244 1.8257,1.2971 0.7299,1.7065 -1.1855,0.4429 -1.8268,-1.2297 -0.7299,-1.7065zm-25.1275 -0.0079l0 0c1.1994,-0.5653 1.8759,1.2155 0.8155,1.6819 -1.1663,0.5131 -1.8798,-1.1802 -0.8155,-1.6819zm25.2855 -6.3617l0 0c1.1393,-0.3361 1.6441,1.4565 0.4772,1.7755 -0.5991,0.1639 -1.0494,-0.2104 -1.1631,-0.651 -0.18,-0.6977 0.2134,-0.9851 0.6859,-1.1245zm-25.1303 -0.0111l0 0c1.1868,-0.3834 1.6684,1.3908 0.5592,1.7526 -1.1768,0.3838 -1.8105,-1.3483 -0.5592,-1.7526zm16.7266 -6.48l0 0c1.1344,-0.4318 1.6182,1.3575 0.6253,1.7308 -1.1212,0.4215 -1.967,-1.22 -0.6253,-1.7308zm-16.7062 0.0005l0 0c1.143,-0.4396 1.5977,1.3189 0.6212,1.7275 -1.0553,0.4415 -1.9983,-1.1978 -0.6212,-1.7275zm25.0772 -0.0175l0 0c1.1626,-0.3531 1.6992,1.4307 0.4964,1.7755 -1.1326,0.3248 -1.7534,-1.3938 -0.4964,-1.7755zm-16.7058 0.0005l0 0c1.1637,-0.3581 1.6988,1.4372 0.4957,1.7755 -1.2215,0.3435 -1.6507,-1.4203 -0.4957,-1.7755zm4.4726 35.3643l0 0c2.3271,-1.0729 5.9033,-3.1894 8.3802,-4.4256 3.0531,-1.5239 5.2394,-3.1996 6.0735,-6.8118 0.4247,-1.839 0.2371,-10.0867 0.2371,-12.549 0,-0.9766 0.0788,-12.1965 -0.0393,-12.8376l-29.3193 -0.0055c-0.1713,0.6968 -0.0539,16.9392 -0.0539,19.1438 0,4.6391 -0.4803,7.4917 2.8413,10.8289 0.205,0.2061 0.176,0.2052 0.3953,0.37 1.4874,1.118 1.4241,0.9606 3.0319,1.8387l6.3071 3.3357c0.6403,0.3399 1.5056,0.8887 2.1461,1.1124z"/>
   <path class="fil2" d="M31.1221 52.5041c-0.6404,-0.2237 -1.5057,-0.7724 -2.1461,-1.1124l-6.3071 -3.3357c-1.6078,-0.8781 -1.5445,-0.7207 -3.0319,-1.8387 -0.2193,-0.1648 -0.1903,-0.1639 -0.3953,-0.37 -3.3216,-3.3372 -2.8413,-6.1898 -2.8413,-10.8289 0,-2.2047 -0.1175,-18.4471 0.0539,-19.1438l29.3193 0.0055c0.1181,0.6411 0.0393,11.861 0.0393,12.8376 0,2.4623 0.1876,10.71 -0.2371,12.549 -0.8341,3.6123 -3.0204,5.288 -6.0735,6.8118 -2.4769,1.2362 -6.053,3.3527 -8.3802,4.4256zm-11.4651 -37.5514l0 0c-0.2419,0.2111 -0.4969,0.1376 -0.9457,0.1353l-3.0853 -0.0001c0,0.5561 0.1268,3.4705 -0.0935,3.7532 -0.6245,1.1967 -1.3027,1.4716 -2.6667,4.6029 -0.7463,1.713 -1.2692,3.8103 -1.4572,5.8882 -0.4697,5.1894 1.2573,10.4608 4.1501,13.9941 0.2777,0.3392 0.5537,0.6608 0.8219,0.9933l1.3163 1.3522c2.8043,2.5292 7.4206,4.5146 10.9542,6.4266 3.1901,1.7259 1.8033,1.568 4.8687,0.0228 1.9395,-0.9777 8.0864,-4.1701 9.4323,-5.1781 1.2896,-0.9661 2.704,-2.3169 3.6763,-3.5762 4.3075,-5.579 5.5697,-12.9662 2.751,-19.8266 -0.3375,-0.821 -0.7731,-1.7224 -1.2063,-2.4215l-1.4895 -2.2108c-0.2465,-0.3674 -0.1167,-3.4533 -0.1167,-3.8645 -0.3637,0 -3.6689,0.1048 -3.9735,-0.0874 -0.497,-0.1841 -1.9965,-1.4993 -5.006,-2.5377 -4.9841,-1.7199 -10.9033,-1.3777 -15.5587,1.0995 -1.0241,0.5448 -1.6089,1.0092 -2.3719,1.435z"/>
   <path class="fil2" d="M27.638 36.1183c-0.0028,-0.7199 -0.1884,-3.0794 0.2431,-3.4857l0.0024 3.2776c0.5969,-0.1691 0.8687,-0.5222 1.6325,-0.5664 0.7627,-0.0441 1.3182,0.4153 1.5948,0.4039 0.3649,-0.0151 0.7752,-0.4615 1.6147,-0.3998 0.6512,0.0478 1.021,0.3806 1.5848,0.5513l0.0436 -3.2302c0.3662,0.2467 0.2178,0.7318 0.2178,1.681 0,0.6117 0.0012,1.2234 -0.001,1.8351 -0.2427,0.085 -0.4402,0.2145 -0.7755,0.2145 -1.3237,0 -1.975,0.17 -2.6731,-0.2472 -0.3075,0.1584 -0.3182,0.2472 -0.7638,0.2472 -1.139,0 -2.1747,0.1747 -2.7203,-0.2815zm3.5932 -4.2724l0 0 0.0048 3.6021c1.1292,-0.5259 1.8032,-0.3821 2.8172,0.1081l0.0377 -3.6263c-1.1363,-0.4257 -1.6373,-0.6787 -2.8597,-0.0839zm-3.1264 0.1442l0 0 0.0018 3.5514c0.4272,-0.1212 0.7512,-0.3605 1.3014,-0.4129 0.6709,-0.0638 1.0018,0.1357 1.5579,0.309l0 -3.4741c-0.5879,-0.8152 -2.2174,-0.3768 -2.8611,0.0265zm8.1629 -5.3836l0 0c0.6476,-0.2806 1.7905,-0.1541 2.5607,-0.0404l0.7374 6.2568c-1.0232,0.6865 -3.0406,0.684 -4.104,-0.0032l0.8059 -6.2131zm-13.606 6.2693l0 0c-0.0577,-0.3643 0.6041,-5.812 0.7461,-6.3219 0.972,-0.0914 1.5679,-0.0915 2.5671,-0.0033l0.7439 6.2723c-1.0487,0.7681 -2.9186,0.5392 -4.0571,0.053zm6.4179 -2.5968l0 0c-0.0547,-0.3144 0.5972,-5.7544 0.751,-6.2896 0.7112,-0.0839 1.9534,-0.2744 2.5218,0.0641 0.1828,0.3169 0.7852,5.4799 0.7922,6.1917 -1.7078,1.1634 -0.5215,-1.3254 -2.1174,-1.8922 -0.2955,0.2499 -0.5466,0.4943 -0.724,0.8853 -0.2279,0.5023 -0.133,0.6608 -0.1866,0.9128 -0.1264,0.5934 -0.6026,0.3909 -1.0369,0.1279zm5.2678 -2.6867l0 0c1.8348,1.3806 1.5087,0.4996 1.0418,4.1541 -0.3943,-0.1967 -0.7532,-0.551 -1.1348,-0.8142 -0.588,-0.4056 -0.8432,-0.4941 -0.9209,-0.974 -0.1184,-0.7308 -0.412,-2.7534 -0.3772,-3.3971 0.4528,0.3126 0.923,0.679 1.3911,1.0312zm-7.9016 1.0264l0 0c0.5434,-0.2458 2.2719,-1.7954 2.8275,-2.0638 -0.0518,0.9337 -0.2399,2.5104 -0.4085,3.4409 -0.0749,0.4139 -0.1376,0.3721 -0.3928,0.5585l-1.6545 1.1977 -0.3716 -3.1332zm11.0741 -3.0354l0 0c-0.5288,0.0013 -1.2667,0.0363 -1.6262,0.2705 0.1337,0.2323 0.1768,0.2319 0.2812,0.4805 1.0656,-0.053 1.6302,-0.074 2.7065,0.0062 0.0956,-0.2035 0.1694,-0.2706 0.2788,-0.4867l-0.1297 -0.0728c-0.4,-0.1563 -1.0917,-0.1987 -1.5105,-0.1976zm-14.4773 0.2705l0 0c0.5996,-0.4322 2.6739,-0.4289 3.2749,0.0011l-0.2855 0.4498c-0.4218,0.0366 -0.9387,-0.0569 -1.4026,-0.0545 -0.4354,0.0023 -0.89,0.0938 -1.306,0.0534l-0.2808 -0.4498zm12.165 1.5576l0 0c-0.1911,-0.189 -0.1028,-0.2989 -0.2802,-0.5027 -0.3818,-0.4383 -0.3632,0.2766 -0.7316,-0.3054 -0.6567,-1.0374 -0.311,-0.2828 -0.7491,-0.5701 -0.4908,-0.2613 -0.0054,-0.3134 -0.6577,-0.7084 0.0071,1.0873 0.126,0.9357 1.2085,1.7579 0.5537,0.4206 1.2331,0.9906 1.7799,1.3216 0.3217,-1.4431 -0.2518,-0.6783 -0.5698,-0.9931zm-8.7091 0.881l0 0 2.4892 -1.8037c0.4409,-0.3199 0.3782,-0.2785 0.4147,-1.0127l0.1035 -0.1914c-0.4304,-0.0416 -0.0488,-0.0313 -0.2159,0.1054 -0.2848,0.2803 -0.291,0.6636 -0.6394,0.7089 -0.1361,0.0178 -0.2451,-0.1642 -0.4732,0.1468 -0.1484,0.2022 -0.0502,0.3423 -0.2852,0.493 -0.4506,0.2892 -0.2666,-0.405 -0.7687,0.4641 -0.0711,0.1231 -0.0729,0.1545 -0.1607,0.2311 -0.2577,0.2253 -0.0295,-0.1004 -0.6302,0.1341l0.0007 0.5975 0.0296 0.2473 0.1356 -0.1205zm9.8742 -3.8815l0 0c0.1942,0.1942 0.3959,0.8402 0.8613,-0.1594l0.5811 0.0003c0.5506,0.9847 0.6426,0.4166 0.8544,0.1478l0.5407 0.1645 0.0134 1.0095c-0.6081,-0.0929 -1.0306,-0.2191 -1.7054,-0.2171 -0.6612,0.0019 -1.1427,0.1779 -1.6933,0.199l0.0344 -0.989 0.5134 -0.1556zm-12.5062 0.3466l0 0c-0.142,-0.0919 -0.0962,-0.0838 -0.1735,-0.16l-0.1511 -0.1452c-0.0114,-0.0103 -0.0369,-0.0319 -0.0571,-0.0454l-0.4628 0.1401 -0.0493 1.0333c1.581,-0.2398 1.7983,-0.3051 3.4015,0.0012l-0.0168 -1.0364 -0.5994 -0.0476c-0.8779,0.8413 -0.34,-0.4052 -1.2231,-0.2474 -0.5652,0.2092 0.0824,0.3739 -0.6683,0.5075zm5.6075 -1.4814l0 0 0.2764 0.4936c1.0672,-0.0797 1.67,-0.0321 2.711,-0.0098 0.1212,-0.237 0.1717,-0.2375 0.2724,-0.4838 -0.7215,-0.4207 -2.5459,-0.3919 -3.2597,0zm0.407 -1.4321l0 0c0.458,0.2498 -0.0077,0.4574 0.5565,0.3164 0.2863,-0.0716 0.2079,-0.2422 0.3925,-0.4792l0.5525 0.0047c0.194,0.3087 0.1033,0.443 0.4105,0.4815 0.3959,0.0496 0.1427,0.0167 0.4746,-0.3294 0.7378,0.1796 0.5287,0.3011 0.5287,1.1268 -1.1673,0.0538 -0.6926,-0.4542 -3.3945,0.053 0,-1.1388 -0.0878,-0.9926 0.4792,-1.1737zm-9.2319 12.0298l0 0 10.4588 5.6803 10.4147 -5.6171 0.0475 -0.3501 -0.006 -13.468 -20.915 0.0008 0 13.7541z"/>
   <path class="fil1" d="M164.7756 14.3021l0 2.5776 -2.1003 0 0 1.432 2.1003 0 0 8.9739c0,0.309 0.1165,0.6644 0.2258,0.9196 0.2431,0.5668 0.6973,0.9038 1.2348,1.152 0.8272,0.3821 2.1035,0.3117 3.0159,0.0183 0.95,-0.3055 0.9453,-0.4848 1.6333,-0.8489 -0.0243,-0.2926 -0.0904,-0.459 -0.191,-0.6682 -0.9194,0 -3.7232,0.9525 -3.7232,-1.3365l0 -8.2102 4.6779 0c0.1525,0.6545 0.7402,2.0083 0.9911,2.7321 0.1729,0.4989 0.3603,0.9463 0.5233,1.3862 0.1817,0.4903 0.3201,0.901 0.5188,1.3905l2.072 5.5654 0.7637 0c-0.0776,0.3332 -0.4686,0.9615 -0.6669,1.2423 -0.7835,1.1085 -2.0423,2.3854 -3.6291,2.3854l1.0501 1.9093c1.6086,-0.7718 2.0275,-1.1885 3.133,-2.8815l0.9413 -1.7317c0.1144,-0.2432 0.1376,-0.3638 0.2528,-0.6063l2.2038 -5.6245c0.6558,-1.6894 1.6226,-4.8741 2.5929,-6.19 0.5495,-0.7451 0.553,-0.3949 0.9002,-0.9137l-4.105 0c0.2236,0.3339 0.3862,0.3454 0.5756,0.761 0.6907,1.5141 -0.0417,2.537 -0.6584,4.4069 -0.1296,0.3927 -0.2635,0.6896 -0.3827,1.0494l-1.4438 4.0932 -2.4691 -6.8865c-0.4222,-1.1281 -0.4822,-2.0338 0.2859,-3.0296l0.3694 -0.3943 -8.4965 -0.0955 0 -4.3914c-0.4044,0.2709 -0.7064,0.619 -1.076,0.9289 -0.3898,0.3268 -0.8667,0.8174 -1.1197,0.8849z"/>
   <path class="fil1" d="M102.9129 35.2094l0 13.0788c0,1.6882 -1.4445,2.2038 -1.7183,2.5776l13.1744 0 0.0927 -2.4849c0.0184,-0.4284 0.0886,-0.3353 0.0981,-0.7611 -0.3255,0.0759 -0.5006,0.2015 -0.7953,0.3504 -3.3537,1.6958 -4.3452,1.7499 -8.274,1.7499l0 -8.019c2.7636,0 3.1725,-0.0824 5.8625,0.5339 0.5135,0.1177 0.6973,0.2298 1.2975,0.2298l0 -2.4821c-1.2167,0 -2.6493,0.6682 -4.3915,0.6682l-2.7685 0 0 -6.7781c4.682,0 4.8566,0.0732 8.6875,2.1002 0,-0.4145 -0.0343,-0.5231 -0.0727,-0.7865 -0.0413,-0.2839 -0.0042,-0.5297 -0.0454,-0.8137 -0.0392,-0.2694 -0.0555,-0.3874 -0.0717,-0.7875 -0.0178,-0.4302 -0.087,-0.3385 -0.0966,-0.7628l-12.697 0c0.2667,0.3642 1.7183,1.009 1.7183,2.3867z"/>
   <path class="fil3" d="M82.7696 29.7678c4.3024,0 6.877,-2.3671 6.8738,-6.6827 -0.0011,-1.3723 -0.1572,-8.9411 0.1995,-9.9199 0.1057,-0.2905 0.4157,-0.8673 0.6336,-1.0848l0.9807 -0.7377 -5.1552 0c0.2678,0.3657 1.9094,0.8513 1.9094,2.7686l0 8.8784c0,1.477 -0.347,2.9195 -0.9916,3.7818 -1.4315,1.9153 -4.902,1.9389 -6.6795,0.9297 -0.6796,-0.386 -1.0765,-0.9166 -1.4308,-1.6242 -0.768,-1.5345 -0.7313,-3.5618 -0.7313,-5.3785l0 -5.919c0,-1.1198 0.209,-2.25 1.0482,-2.8658l0.7657 -0.571 -6.0145 0c0.2616,0.3572 1.1655,0.6221 1.5667,1.7747 0.3182,0.914 0.158,8.666 0.1508,9.9685 -0.0227,4.1023 2.5094,6.6818 6.8745,6.6818z"/>
   <path class="fil1" d="M155.1333 39.219c2.0825,0 3.2396,2.3076 3.3414,3.5323l-6.4917 0c0.0166,-0.7441 0.6356,-1.8685 0.9917,-2.3497 0.3922,-0.5296 1.2885,-1.1826 2.1586,-1.1826zm-6.3006 5.2506l0 0c0,2.0384 0.7615,3.909 2.3073,5.1391 0.1706,0.1357 0.2136,0.2194 0.4028,0.3608 3.0539,2.2812 7.0894,1.4766 9.0304,-1.874 1.2481,-2.1544 0.4375,-1.812 -0.4755,-1.812 -0.2124,0.4014 -0.3425,0.8362 -0.5745,1.2393 -0.1762,0.306 -0.5246,0.7721 -0.7832,1.0307 -2.4007,2.4007 -7.0435,1.2364 -7.0435,-4.5612l9.7377 0c-0.1431,-1.7193 -0.9791,-3.1276 -1.9329,-4.0814 -2.4654,-2.4654 -6.2478,-2.4017 -8.7356,0.0955 -0.3176,0.3187 -0.442,0.4367 -0.7199,0.8076 -0.2144,0.2864 -0.4505,0.674 -0.6102,1.0127 -0.3071,0.6507 -0.6029,1.7247 -0.6029,2.643z"/>
   <path class="fil1" d="M130.2165 17.7389c1.0626,0 1.7929,0.5076 2.277,1.1599 0.5518,0.7437 0.8239,1.3397 1.0644,2.3724l-6.5872 0c0.3576,-1.5345 1.3973,-3.5323 3.2458,-3.5323zm-6.3007 4.9643l0 0 0 0.9547c0,1.6062 1.1388,3.4087 1.9791,4.2263 0.4805,0.4676 1.2623,0.9732 1.871,1.2793 1.5175,0.7631 3.5096,0.823 5.062,0.0653 0.9823,-0.4795 1.8695,-1.2115 2.4682,-2.1143 0.2559,-0.3861 0.9625,-1.6762 0.9823,-2.0801 0.018,-0.3684 -0.2392,-0.2309 -1.193,-0.2309 -0.9115,3.9124 -6.341,5.0525 -7.962,0.3247 -0.3507,-1.0232 -0.3436,-1.552 -0.3436,-2.6159l9.4511 0c0.3924,0 0.2451,-0.4233 0.0783,-1.0328 -1.0331,-3.7715 -4.7414,-5.9355 -8.5101,-4.3442 -2.1278,0.8985 -3.8833,3.2171 -3.8833,5.5679z"/>
   <path class="fil1" d="M134.1306 39.219c1.9875,0 2.9543,1.8709 3.3414,3.5323l-6.5872 0c0.2346,-0.489 0.1501,-1.0154 1.0481,-2.2933 0.4017,-0.5715 1.2356,-1.239 2.1977,-1.239zm-6.3007 5.0596l0 0c0,2.1246 0.559,3.6769 1.9316,5.0375 0.1928,0.1912 0.1962,0.1815 0.4154,0.3483 1.9166,1.4588 4.3303,2.1971 6.581,1.0602 1.4884,-0.7519 2.6886,-1.9565 3.2339,-3.5443 0.3411,-0.993 0.4599,-0.8969 -0.8969,-0.8969 -0.4295,0.8116 -0.4896,1.4019 -1.3578,2.27 -0.8561,0.8562 -1.7402,1.1668 -3.0336,1.1668 -2.349,0 -4.0096,-2.7095 -4.0096,-5.1552l0 -0.5727 9.7376 0c-0.2289,-0.9817 -0.1768,-1.3004 -0.667,-2.2924 -0.3422,-0.6929 -0.7331,-1.257 -1.2655,-1.7894 -1.753,-1.753 -4.5225,-2.3935 -6.819,-1.2327 -0.8816,0.4456 -1.2034,0.6144 -1.869,1.2813 -1.1152,1.1173 -1.9811,2.5585 -1.9811,4.3196z"/>
   <path class="fil3" d="M91.9345 17.9299c0.3864,0.5769 1.4319,1.1309 1.4319,2.6731l0 6.2054c0,1.5386 -1.0308,2.1212 -1.3364,2.5776l4.9641 0c-0.2134,-0.3189 -1.432,-0.9893 -1.432,-2.2912l0 -6.8736c0,-0.4818 1.633,-1.9973 3.0172,-1.8694 0.9365,0.0867 1.3245,0.1134 1.8319,0.6481 0.3947,0.4158 0.5926,1.1074 0.5926,1.8895l0 6.0145c0,1.4904 -0.942,1.8931 -1.3365,2.4821l4.9644 0c-0.4917,-0.6709 -1.4361,-0.6349 -1.4321,-2.9594 0.0032,-1.9225 0.2629,-6.8026 -0.5401,-8.2428 -1.2244,-2.1958 -4.5807,-1.9375 -6.4466,-0.4623 -0.2909,0.2299 -0.4349,0.4775 -0.7461,0.6859 0,-0.6374 -0.1909,-1.0949 -0.1909,-1.8139 -0.7285,0.1697 -2.6707,1.1803 -3.3413,1.3365z"/>
   <path class="fil1" d="M78.7599 50.1021c-1.8736,0 -2.1956,-1.0649 -2.1956,-2.6731 0,-2.0116 0.6946,-4.1654 1.4343,-5.4392 0.8497,-1.463 2.0872,-2.8663 4.0073,-2.8663 3.2252,0 1.767,5.4309 1.1758,6.8082 -0.674,1.5706 -0.9078,1.9427 -2.0574,3.0977 -0.4746,0.4768 -1.4598,1.0726 -2.3643,1.0726zm-4.7733 -3.8187l0 0c0,6.4345 6.8625,5.333 9.3301,3.2201 1.221,-1.0456 2.1757,-2.1535 2.7114,-3.7803 1.2136,-3.6849 0.481,-7.6498 -4.1177,-7.6498 -1.2004,0 -2.4398,0.3636 -3.2472,0.7624 -1.9764,0.9764 -2.9877,2.2564 -3.9139,4.1053 -0.4312,0.8611 -0.7626,2.3555 -0.7626,3.3423z"/>
   <path class="fil3" d="M89.5478 38.4552l-2.3868 0c0,1.6729 -0.396,1.3365 2.1003,1.3365 -0.012,0.5379 -2.1172,11.4666 -2.399,12.303 -0.1108,0.329 -0.2345,0.6757 -0.3552,0.9812 -0.4536,1.1482 -1.1522,1.965 -1.8456,2.8323 -0.0882,0.1103 -0.194,0.2872 -0.269,0.3993 0.3534,0.528 0.488,0.6348 2.173,-0.7865 1.0156,-0.8566 1.29,-1.1292 2.0468,-2.3447 0.1961,-0.3148 0.3379,-0.6846 0.4715,-1.056 0.3666,-1.0183 1.243,-6.0644 1.5058,-7.3726l0.9629 -4.956 3.7232 -0.0955 0 -1.2411 -3.4368 0c0,-0.3992 0.0654,-0.5445 0.1365,-0.9137l0.5542 -2.8825c0.9389,-4.5981 3.9667,-1.7106 4.7509,-1.6454 0.0667,-0.2502 0.2613,-0.5208 0.3821,-0.7635 0.1419,-0.2854 0.3016,-0.5162 0.3816,-0.8595 -1.6733,-0.8854 -3.3541,-0.9804 -5.0047,0.1503 -1.4648,1.0032 -2.248,2.3474 -2.8523,4.0215l-0.6394 2.8927z"/>
   <path class="fil1" d="M120.5743 45.1378c0,0.0269 -2.11,2.6815 -2.3456,3.0005l-2.714 2.7275 4.3914 0c-0.9639,-1.4397 -0.9483,-1.7917 0.2057,-3.3266 0.1913,-0.2545 1.0591,-1.3691 1.1308,-1.6377 0.2237,0.1499 2.1958,2.7269 2.1958,3.5323 0,0.7785 -0.3309,1.0706 -0.5728,1.432l5.4415 0c-0.2113,-0.3155 -0.4981,-0.383 -0.7873,-0.6447l-1.1917 -1.0995c-0.7281,-0.8698 -3.4626,-4.7694 -3.4626,-4.843 0,-0.1832 0.3413,-0.5387 0.5502,-0.7863 0.2113,-0.2507 0.4114,-0.4979 0.5954,-0.741 0.3961,-0.5237 0.8469,-1.0036 1.2409,-1.5277 1.0175,-1.3541 2.6482,-2.5884 2.7688,-2.7684l-4.487 0c0.1822,0.2721 0.2784,0.2647 0.4495,0.6008 0.7225,1.4199 -0.5109,2.4713 -1.5663,3.915 -0.1519,0.2079 -0.1382,0.2803 -0.4107,0.353 -0.1749,-0.6549 -1.8138,-2.2305 -1.8138,-3.2458 0,-1.3903 0.4149,-1.0319 0.5728,-1.623l-5.4417 0c0.1257,0.1877 0.1181,0.189 0.3243,0.3441 0.2334,0.1756 0.2131,0.1659 0.4162,0.3475 0.1949,0.1745 0.2351,0.1604 0.4297,0.334 0.1438,0.1284 0.2444,0.2392 0.3828,0.3808 0.5553,0.5673 3.6975,4.9275 3.6975,5.2763z"/>
   <path class="fil1" d="M146.8278 20.1256c0,0.3909 0.1787,1.0214 0.2966,1.3264 0.3954,1.0249 1.6891,1.7787 2.6913,2.1774 1.0973,0.4366 2.5091,0.9026 3.2427,1.6261 1.8018,1.7778 -0.9506,4.9663 -4.0091,2.3862 -0.2443,-0.206 -0.4208,-0.4017 -0.5999,-0.6412 -0.375,-0.502 -0.3062,-0.5708 -0.5715,-0.7651 -0.3348,0.2242 -0.4956,0.5372 -0.7881,0.8348 -1.0424,1.0603 -0.7737,1.0391 -0.4006,1.3087 0.181,0.1307 0.2651,0.206 0.4415,0.3222 3.105,2.0458 8.7665,1.1058 8.7665,-2.5611 0,-2.3127 -1.085,-3.0678 -3.1632,-3.9013 -1.3961,-0.56 -3.7103,-1.2007 -3.7103,-2.8768 0,-1.8757 2.6517,-2.0628 3.9843,-0.9296 0.3781,0.3215 0.9543,0.8871 1.0754,1.4069l0.1909 0c0.1707,-0.7328 0.9133,-1.6083 1.0502,-2.1957 -2.1889,-1.1581 -4.9095,-1.7216 -7.1048,-0.2311 -0.5965,0.405 -1.1038,1.1173 -1.2588,1.796 -0.0516,0.2258 -0.133,0.7187 -0.133,0.9172z"/>
   <path class="fil1" d="M116.9467 29.3859l1.7183 0 2.6328 -6.6275c0.7806,-1.9533 1.0461,-3.0944 2.2512,-4.6224 0.2519,-0.3193 0.2214,-0.3406 0.5576,-0.588l0.6684 -0.5727 -4.1052 0c0.967,1.444 0.5217,2.1778 -0.0563,3.6669l-2.3303 6.1662c-0.3359,-1.4422 -2.9595,-7.2553 -2.9595,-8.2102 0,-0.8269 0.3459,-1.0584 0.4773,-1.6229l-4.7732 0c0.2276,0.34 1.2149,0.8036 2.0692,2.5131 0.398,0.7966 0.9185,2.3406 1.3002,3.2821l2.5494 6.6155z"/>
   <path class="fil1" d="M142.8182 35.9731l0 2.4821 -2.1003 0 0 1.432 2.1003 0 0 8.6874c0,1.4988 1.1443,2.5776 2.5776,2.5776 1.0583,0 1.2835,0.0369 2.3062,-0.3668 1.4296,-0.5644 1.3296,-0.8333 1.0351,-1.447 -0.3817,0.1832 -1.4518,0.2865 -2.0048,0.2865 -1.2792,0 -1.7183,-0.7335 -1.7183,-2.0049l0 -7.7327 2.9593 0c0.3987,0 0.2865,-0.3313 0.2865,-1.1456 0,-0.22 -0.0664,-0.2865 -0.2865,-0.2865l-2.9593 0 0 -4.3915c-0.2312,0.1548 -0.2794,0.2584 -0.5165,0.4382l-1.1322 0.9682c-0.2152,0.2121 -0.3077,0.3426 -0.5471,0.503z"/>
   <path class="fil3" d="M165.7302 40.651l-0.1811 -1.6327c-0.1434,-1.3414 0.3565,-1.1051 -1.8896,-0.1515 -0.4254,0.1807 -0.9382,0.3151 -1.1752,0.6387 0.4749,0.7092 1.2411,0.9814 1.2411,2.6731l0 5.9188c0,2.1119 -1.1793,2.1802 -1.3365,2.7686l5.1552 0c-0.2719,-0.4062 -0.7364,-0.4986 -1.0527,-0.952 -0.2595,-0.3718 -0.5701,-0.8078 -0.5701,-1.4347l0 -6.3961c0.4827,-0.3233 0.7805,-0.5849 1.3351,-0.8606 0.9589,-0.4766 2.4437,-0.6345 3.5336,-0.3805l0 -2.9594c-3.505,0.078 -4.6892,2.497 -5.0597,2.7685z"/>
   <path class="fil1" d="M140.4315 19.2664c0,-0.966 -0.1911,-1.7309 -0.1911,-2.6731l-3.0548 1.3365c0.1578,0.5909 1.2411,0.9289 1.2411,2.4821l0 6.5872c0,0.5683 -0.1774,1.0263 -0.4205,1.3934 -0.1211,0.1829 -0.2949,0.3997 -0.4378,0.5168 -0.2373,0.1943 -0.2948,0.2027 -0.4782,0.4766l5.1552 0c-0.146,-0.2183 -0.339,-0.3308 -0.5589,-0.4912 -0.6401,-0.4669 -1.0639,-1.2792 -1.0639,-2.1819l0 -6.0144c1.2731,-0.8526 1.6282,-1.432 3.9141,-1.432 0.5298,0 0.566,0.0955 1.0501,0.0955l0 -2.8641c-3.6626,0 -4.7151,2.4461 -5.1552,2.7686z"/>
   <path class="fil3" d="M105.9679 17.9299c0.3749,0.5597 1.432,1.1257 1.432,2.6731l0 6.2054c0,1.5386 -1.0309,2.1212 -1.3365,2.5776l4.9644 0c-0.2741,-0.4093 -0.5513,-0.414 -0.8614,-0.857 -0.9512,-1.3587 -0.5707,-2.5788 -0.5707,-4.7755 0,-2.3867 0,-4.7733 0,-7.16 -0.3793,0.0883 -0.5449,0.1935 -0.9182,0.3229 -0.3513,0.1218 -0.5905,0.2225 -0.8957,0.3453 -0.3625,0.146 -1.4901,0.6413 -1.814,0.6683z"/>
   <path class="fil1" d="M157.0426 17.9299c0.0835,0.3124 0.1783,0.3295 0.4053,0.5494 0.1942,0.1881 0.308,0.2899 0.4568,0.498 0.2618,0.3664 0.4744,0.8959 0.4744,1.5303l0 6.3963c0,1.4904 -0.942,1.8931 -1.3365,2.4821l4.9045 -0.1311c-0.5674,-0.4896 -1.1435,-0.8695 -1.3379,-1.908 -0.1116,-0.5961 -0.0343,-9.6889 -0.0343,-10.7535 -0.6693,0.1559 -3.0337,1.2203 -3.5324,1.3365z"/>
   <path class="fil1" d="M24.545 28.2362c0.0768,-0.3329 0.0373,-0.1832 0.1972,-0.2965l0.0697 0.2958c0.1263,0.2012 0.1113,0.1361 0.1133,0.5751 0.0009,0.2274 -0.007,0.4233 -0.0306,0.6687l-0.4309 -0.0222c-0.0242,-0.2254 -0.0319,-0.419 -0.0309,-0.6465 0.0019,-0.4502 0.0149,-0.4188 0.1123,-0.5744zm-1.8833 4.6395l0 0c1.1385,0.4862 3.0084,0.7151 4.0571,-0.053l-0.7439 -6.2723c-0.9991,-0.0881 -1.5951,-0.088 -2.5671,0.0033 -0.142,0.5099 -0.8038,5.9577 -0.7461,6.3219z"/>
   <path class="fil1" d="M37.3509 29.4564c-0.0527,-0.4901 -0.1134,-1.1294 0.1674,-1.4801 0.3096,0.2636 0.2457,1.0008 0.1827,1.4801l-0.3502 0zm-1.0831 -2.85l0 0 -0.8059 6.2131c1.0634,0.6873 3.0808,0.6897 4.104,0.0032l-0.7374 -6.2568c-0.7702,-0.1136 -1.9131,-0.2401 -2.5607,0.0404z"/>
   <path class="fil2" d="M23.4848 43.6535c0.5058,-0.2139 3.7069,-1.9301 3.9082,-2.153l-6.7243 -3.6365c-0.0234,1.6033 -0.1009,2.3942 0.5731,3.6906 0.3925,0.755 1.3414,1.8281 2.2429,2.099z"/>
   <path class="fil2" d="M34.8356 41.4955l3.9237 2.1581c0.9411,-0.3936 1.7611,-1.2333 2.1916,-2.0528 0.6738,-1.2827 0.6148,-2.1019 0.6148,-3.6836l-6.7302 3.5783z"/>
   <path class="fil1" d="M30.9145 26.8918c-0.0365,-0.5406 -0.0762,-1.0477 0.1276,-1.5084 0.2717,0.1583 0.2567,0.3229 0.2668,0.7535 0.0015,0.0655 0.01,0.4523 0.0048,0.4891 -0.0399,0.2897 0.1118,0.2658 -0.3992,0.2658zm-1.8349 3.387l0 0c0.4344,0.263 0.9105,0.4656 1.0369,-0.1279 0.0536,-0.252 -0.0413,-0.4105 0.1866,-0.9128 0.1773,-0.391 0.4285,-0.6354 0.724,-0.8853 1.5959,0.5667 0.4096,3.0556 2.1174,1.8922 -0.007,-0.7118 -0.6093,-5.8748 -0.7922,-6.1917 -0.5683,-0.3385 -1.8105,-0.148 -2.5218,-0.0641 -0.1538,0.5351 -0.8056,5.9751 -0.751,6.2896z"/>
   <path class="fil2" d="M27.2191 45.6065l3.8894 2.1177 3.8938 -2.0611c-0.4058,-0.3252 -1.3437,-0.7995 -1.8879,-1.0831 -0.6636,-0.3456 -1.3317,-0.7322 -1.9924,-1.0438l-3.9029 2.0703z"/>
   <path class="fil1" d="M28.1048 31.99l0.0018 3.5514c0.4272,-0.1212 0.7512,-0.3605 1.3014,-0.4129 0.6709,-0.0638 1.0018,0.1357 1.5579,0.309l0 -3.4741c-0.5879,-0.8152 -2.2174,-0.3768 -2.8611,0.0265z"/>
   <path class="fil1" d="M31.2312 31.8458l0.0048 3.6021c1.1292,-0.5259 1.8032,-0.3821 2.8172,0.1081l0.0377 -3.6263c-1.1363,-0.4257 -1.6373,-0.6787 -2.8597,-0.0839z"/>
   <path class="fil1" d="M35.3893 31.7462c0.4668,-3.6545 0.793,-2.7735 -1.0418,-4.1541 -0.4681,-0.3522 -0.9383,-0.7187 -1.3911,-1.0312 -0.0347,0.6438 0.2589,2.6663 0.3772,3.3971 0.0777,0.4799 0.3329,0.5684 0.9209,0.974 0.3816,0.2631 0.7405,0.6175 1.1348,0.8142z"/>
   <path class="fil1" d="M26.4459 28.6186l0.3716 3.1332 1.6545 -1.1977c0.2553,-0.1864 0.318,-0.1446 0.3928,-0.5585 0.1686,-0.9305 0.3567,-2.5072 0.4085,-3.4409 -0.5557,0.2684 -2.2842,1.818 -2.8275,2.0638z"/>
   <path class="fil4" d="M27.638 36.1183c0.5455,0.4561 1.5813,0.2815 2.7203,0.2815 0.4456,0 0.4563,-0.0888 0.7638,-0.2472 0.6981,0.4172 1.3494,0.2472 2.6731,0.2472 0.3352,0 0.5328,-0.1295 0.7755,-0.2145 0.0022,-0.6117 0.001,-1.2234 0.001,-1.8351 0,-0.9492 0.1484,-1.4343 -0.2178,-1.681l-0.0436 3.2302c-0.5638,-0.1708 -0.9336,-0.5035 -1.5848,-0.5513 -0.8395,-0.0617 -1.2498,0.3847 -1.6147,0.3998 -0.2767,0.0114 -0.8321,-0.448 -1.5948,-0.4039 -0.7638,0.0442 -1.0356,0.3973 -1.6325,0.5664l-0.0024 -3.2776c-0.4315,0.4063 -0.2459,2.7657 -0.2431,3.4857z"/>
   <path class="fil3" d="M157.9974 13.7294c0,1.1956 1.4262,2.0277 2.4612,1.1247 0.9584,-0.8361 0.3498,-2.5567 -0.9339,-2.5567 -0.8097,0 -1.5273,0.6574 -1.5273,1.432z"/>
   <path class="fil1" d="M107.0182 13.6339c0,2.2152 2.8641,1.8525 2.8641,0.3819 0,-0.8369 -0.2854,-1.7184 -1.3365,-1.7184 -0.6343,0 -1.0624,0.2898 -1.3381,0.7622 -0.1004,0.1721 -0.1894,0.3064 -0.1894,0.5743z"/>
   <path class="fil1" d="M18.5469 55.5215l0.5478 0.2364 0.8737 -2.0258 0.2278 1.481c0.1562,0.7041 0.5956,0.3543 1.0658,0.0159 0.288,-0.2075 0.4862,-0.4102 0.8189,-0.532l-0.8199 1.9792 0.4929 0.2407 1.4688 -3.2963c-0.5983,-0.2006 -0.36,-0.1174 -1.3841,0.5624 -0.3799,0.252 -0.7186,0.571 -1.1649,0.7564 -0.0404,-0.4869 -0.1182,-0.9734 -0.1854,-1.4676 -0.1825,-1.3414 -0.017,-1.0155 -0.4617,-1.2303 -0.2127,0.1842 -1.3542,2.8636 -1.4796,3.2797z"/>
   <path class="fil1" d="M38.201 56.8802c-1.2834,1.0338 -2.5619,-0.4035 -1.9741,-1.5716 0.5155,-1.024 2.4391,-0.9075 2.3173,1.0012 -0.3319,-0.0596 -0.5307,-0.2638 -0.8379,-0.3835l-0.2173 0.4971c0.127,0.049 0.2785,0.1118 0.3994,0.1818l0.3126 0.2751zm0.5583 0.2871l0 0 0.6443 0.3383c0.2038,-0.2067 0.1622,-0.1703 0.2748,-0.4241 -0.2001,-0.1765 -0.3773,-0.2661 -0.6367,-0.378 0.2207,-1.2358 -0.0467,-1.9624 -0.8773,-2.3825 -2.0442,-1.034 -3.7122,1.83 -1.8954,3.1405 0.9722,0.7014 1.8403,0.2219 2.4903,-0.2942z"/>
   <path class="fil1" d="M49.2477 49.7609c-0.4837,-0.0825 -0.9433,-0.2314 -1.4031,-0.3484 -0.2417,-0.0615 -0.4322,-0.1078 -0.6822,-0.1735 -1.5704,-0.4131 0.2677,1.2141 0.4766,1.4353l1.3069 1.2936c0.1607,-0.1175 0.2524,-0.2072 0.4014,-0.3278 -0.305,-0.6719 -1.2202,-1.1185 -1.4622,-1.6548 0.9574,0.1726 1.6112,0.5755 1.8638,0.2248 0.0135,-0.0216 0.0321,-0.0814 0.0346,-0.0681 0.0026,0.0131 0.0258,-0.0528 0.0282,-0.0699 0.0386,-0.2771 -0.0171,-0.3508 -0.0996,-0.7037 -0.0831,-0.3543 -0.1472,-0.5951 -0.1935,-0.9479 0.7004,0.5332 1.0303,1.0649 1.556,1.471l0.3852 -0.3474 -2.4854 -2.5499c-0.5352,0.3674 0.0612,1.411 0.2733,2.7668z"/>
   <path class="fil1" d="M4.6923 23.7366l2.3415 0.5977c-0.4316,0.2784 -1.0043,0.4742 -1.4738,0.684 -0.9021,0.4031 -1.2918,0.3992 -1.387,0.9308 0.4535,0.2637 2.7848,0.7697 3.4857,0.8979l0.088 -0.5148c-0.6351,-0.3921 -1.6352,-0.2971 -2.2899,-0.6598 0.4095,-0.22 1.035,-0.4918 1.5021,-0.686 1.3443,-0.5588 1.2719,-0.3944 1.3544,-0.9665l-3.4386 -0.8329 -0.1823 0.5496z"/>
   <path class="fil1" d="M35.6341 4.7348c1.6209,-0.5349 2.0994,1.9494 0.7675,2.4354 -1.6225,0.592 -2.3775,-1.9043 -0.7675,-2.4354zm0.0407 -0.6067l0 0c-2.3838,0.4159 -1.7943,4.0914 0.662,3.641 2.2808,-0.4182 1.7528,-4.0624 -0.662,-3.641z"/>
   <path class="fil4" d="M57.9239 30.6144c-0.9301,0.6614 -0.9952,-0.1776 -1.0163,-1.0594l1.0887 -0.0397 -0.0724 1.0991zm-3.0215 -1.5847l0 0 -0.023 0.592 1.5379 -0.0495c-0.1321,0.4174 -1.1203,1.1251 -1.4515,1.4366l-0.0073 0.6814c0.5944,-0.2569 0.9249,-0.9657 1.5196,-1.1859 0.0715,0.4057 0.1871,0.6671 0.4914,0.8119 0.336,0.1596 0.8188,0.1436 1.1274,-0.0662 0.5687,-0.3868 0.4019,-1.4562 0.3699,-2.2873 -0.5394,-0.1256 -2.8434,0.0477 -3.5645,0.067z"/>
   <path class="fil1" d="M53.2821 41.2121c0.1815,-0.704 0.369,-1.1791 1.1564,-0.9517 0.2259,0.4622 0.0578,0.8813 -0.2093,1.3341l-0.947 -0.3823zm-0.6788 0.298l0 0 3.2352 1.4081 0.2658 -0.5642c-0.3749,-0.0887 -1.2017,-0.3841 -1.3882,-0.6638 1.8756,-0.7474 1.8,-0.0763 2.1804,-1.2286l-1.8358 0.5279c0.1869,-1.7677 -1.8428,-2.2314 -2.4575,0.5206z"/>
   <path class="fil1" d="M13.6757 10.6745c0.0768,-0.1103 0.0361,-0.0642 0.1636,-0.1969 0.1311,-0.1362 0.4166,-0.3831 0.6214,-0.423 0.4877,-0.0948 0.6345,0.2986 0.6203,0.7581 -0.3198,0.2421 -0.4411,0.4174 -0.7611,0.61 -0.3638,-0.2991 -0.3743,-0.4268 -0.6443,-0.7483zm-0.8055 -0.1325l0 0 2.2135 2.8024 0.469 -0.2684c-0.1502,-0.3616 -0.6837,-0.8735 -0.9138,-1.2351 0.7771,-0.341 1.6946,0.8418 2.4992,-0.1164 -0.2186,-0.143 -0.9968,-0.2356 -1.3487,-0.3141l-0.4355 -0.1632c0.7473,-1.092 -0.0837,-1.6995 -0.5904,-1.7623 -0.7008,-0.0868 -1.427,0.7931 -1.8933,1.057z"/>
   <path class="fil0" d="M35.6341 4.7348c-1.61,0.5311 -0.855,3.0274 0.7675,2.4354 1.3318,-0.486 0.8534,-2.9702 -0.7675,-2.4354z"/>
   <path class="fil1" d="M44.4257 11.2693c0.2504,0.2688 1.6234,1.3187 2.0093,1.455l0.1843 -0.3794c-0.3173,-0.3868 -0.8918,-0.6646 -1.3617,-1.0977l0.5664 -0.808c0.5344,0.2609 0.858,0.698 1.3774,0.9093l0.218 -0.3806c-0.3992,-0.4188 -0.8722,-0.6257 -1.2715,-1.0273 0.1486,-0.2182 0.3005,-0.4381 0.5352,-0.6841 0.5762,0.1777 0.9562,0.817 1.5589,0.9872l0.1651 -0.3374c-0.1269,-0.2766 -1.641,-1.3682 -1.9427,-1.4623 -0.1566,0.378 -0.7228,1.0499 -0.9857,1.4068 -0.3678,0.4991 -0.7028,0.9465 -1.0529,1.4184z"/>
   <path class="fil1" d="M50.6767 17.4525c0.1911,0.3937 0.9669,1.6391 1.257,1.9634l0.413 -0.2148c-0.2236,-0.6083 -0.691,-0.996 -0.8962,-1.5576l0.7801 -0.5333c0.4372,0.3672 0.5458,0.9117 0.9442,1.3122l0.4068 -0.1678c-0.2005,-0.5702 -0.6514,-0.9428 -0.7988,-1.4703l0.7766 -0.5152 0.927 1.5052 0.4433 -0.196c-0.1507,-0.4396 -0.999,-1.7304 -1.2774,-2.0377 -0.4183,0.1824 -1.0542,0.6327 -1.4782,0.9096l-1.4013 0.8969c-0.0136,0.0124 -0.0379,0.0413 -0.0487,0.0517 -0.0107,0.0105 -0.0316,0.0356 -0.0474,0.0537z"/>
   <path class="fil1" d="M14.5029 52.8706l0.0919 0.1063c0.3494,0.3235 1.5969,1.1921 1.9433,1.2786 0.3762,-0.8717 -0.3268,-0.4341 -1.2422,-1.4803 0.1389,-0.2319 0.341,-0.5751 0.5514,-0.7683 0.5069,0.2419 0.8853,0.657 1.3365,0.8532l0.2916 -0.354c-0.3689,-0.3927 -0.9226,-0.6257 -1.3,-0.9883 0.1466,-0.2395 0.2706,-0.5041 0.5311,-0.7267 0.5102,0.1978 0.9743,0.7827 1.5376,0.9552l0.1917 -0.4023c-0.2445,-0.2238 -1.5631,-1.211 -1.9202,-1.3291l-2.0127 2.8557z"/>
   <path class="fil1" d="M54.1793 24.9414l0.4678 2.3161 0.5289 -0.0495 -0.3692 -1.8 1.0046 -0.2068c0.1193,0.503 0.161,1.2305 0.4185,1.579l0.4262 -0.0669 -0.3311 -1.6392 0.9473 -0.1994 0.3639 1.7443c0.9831,-0.135 0.3166,-0.1455 0.0462,-2.4309l-3.5031 0.7533z"/>
   <path class="fil1" d="M33.2267 56.8843c0.5167,-0.2621 0.2891,0.154 0.3061,-0.386l-0.1384 -0.0737c-0.157,-0.0228 -0.1022,-0.0142 -0.2617,-0.0086 -0.2628,0.009 -0.1757,0.0452 -0.4778,0.0142l-0.7417 -0.0427 -0.0468 -0.9401c0.4519,-0.0184 1.4194,0.0201 1.797,-0.1902l-0.0153 -0.2864c-0.3093,-0.233 -0.671,-0.1179 -1.1921,-0.09 -0.4055,0.0216 -0.7962,0.0425 -1.2024,0.0562l0.1802 3.5655c0.5613,0.0484 2.068,0.0072 2.4118,-0.1905l-0.0156 -0.2864c-0.1736,-0.1368 0.2833,-0.184 -0.8938,-0.1064 -0.3182,0.0209 -0.6276,0.0375 -0.946,0.0329l-0.0225 -1.0271 1.2591 -0.0409z"/>
   <path class="fil1" d="M9.4573 14.328c0.8826,0.7156 1.7973,1.4703 2.665,2.25l1.5869 -1.8097c-0.1514,-0.1592 -0.1602,-0.2011 -0.3536,-0.3387l-1.0079 1.1467c-0.1625,0.1712 -0.0488,0.077 -0.2237,0.1779 -0.2602,-0.1536 -0.5078,-0.4198 -0.7469,-0.5922 0.1677,-0.3358 0.2767,-0.3401 0.4964,-0.6308 0.2156,-0.2853 0.2806,-0.3489 0.5233,-0.6027 -0.1475,-0.2475 -0.128,-0.1915 -0.3682,-0.3474l-1.0247 1.1915c-0.296,-0.1261 -0.5247,-0.3977 -0.7576,-0.5845 0.2521,-0.3725 0.9673,-1.0761 1.1128,-1.4428l-0.3676 -0.2647c-0.3127,0.3193 -1.3924,1.5137 -1.5342,1.8472z"/>
   <path class="fil1" d="M11.9573 45.3288l-0.3104 -0.4006c-1.1587,0.5404 -2.3264,2.0531 -3.0117,0.9252 -0.6242,-1.027 0.9185,-1.4045 2.1042,-2.3826l-0.3025 -0.4488c-1.4101,0.7784 -3.1667,1.6918 -2.2568,3.1975 0.8778,1.4528 2.4874,0.0065 3.3439,-0.5344l0.4332 -0.3564z"/>
   <path class="fil1" d="M51.396 43.6717c0.4794,0.3447 0.9478,0.6456 1.4231,0.9608 0.475,0.3152 1.13,0.7021 0.6435,1.4591 -0.6586,1.0249 -1.9526,-0.5146 -3.0395,-1.0264l-0.2771 0.4448c0.3254,0.3319 1.334,0.9314 1.7426,1.2023 1.7095,1.1335 3.1592,-1.234 1.7083,-2.2801 -0.4928,-0.3554 -1.3265,-0.9379 -1.8538,-1.2219l-0.347 0.4615z"/>
   <path class="fil1" d="M42.2709 52.1642c0.3146,0.7615 1.6483,2.6206 0.6207,3.1206 -1.3055,0.6351 -1.339,-1.3071 -2.1682,-2.3692l-0.4506 0.2267c0.091,0.3935 0.6962,1.5852 0.9085,1.9837 0.9365,1.758 3.3299,0.487 2.5626,-1.2226 -0.2706,-0.6028 -0.6517,-1.4498 -0.9554,-1.9684l-0.5176 0.2293z"/>
   <path class="fil1" d="M3.7628 30.6872l-0.042 0.4171c0.0205,0.0147 0.0487,0.0324 0.0641,0.0398l0.2118 0.0902c0.5915,0.2264 -0.1665,-0.1078 0.1939,0.0673 0.6744,-0.0318 1.7694,0.1842 2.3515,-0.0546 0.4879,-0.2002 0.9173,-0.8472 0.8047,-1.5699 -0.2275,-1.4601 -2.0284,-1.2169 -3.5596,-1.2643l-0.0184 0.4957c0.0255,0.013 0.0621,0.0027 0.0775,0.0352l0.8352 0.0973c0.2891,0.0116 0.5649,0.0255 0.8529,0.0385 0.6528,0.0294 1.2232,0.1083 1.2631,0.785 0.0821,1.3894 -1.9285,0.7617 -3.0348,0.8227z"/>
   <path class="fil4" d="M49.7003 13.3831l-2.162 0.3083 0.2753 0.4448 1.831 -0.1803 -0.3741 1.6789 0.4429 0.4802 0.5294 -2.1603 2.0185 -0.284 -0.2824 -0.3752c-0.2964,-0.2194 -0.9407,0.0171 -1.6851,0.0991 0.1373,-1.0703 0.6269,-1.5423 -0.1696,-2.0586l-0.4238 2.0472z"/>
   <path class="fil0" d="M38.201 56.8802l-0.3126 -0.2751c-0.1209,-0.07 -0.2724,-0.1328 -0.3994,-0.1818l0.2173 -0.4971c0.3072,0.1197 0.506,0.324 0.8379,0.3835 0.1218,-1.9087 -1.8018,-2.0252 -2.3173,-1.0012 -0.5877,1.168 0.6907,2.6054 1.9741,1.5716z"/>
   <path class="fil1" d="M18.1732 10.0499l-0.1128 0.4238c1.9358,0.73 2.8438,-1.7512 1.3479,-2.1168 -0.5951,-0.1454 -1.0447,0.2522 -1.5855,-0.0367 -0.2053,-0.2661 -0.1341,-0.6027 0.263,-0.7596 0.685,-0.2707 0.7394,0.3591 0.8343,-0.5976 -1.994,-0.2925 -2.2575,1.6996 -1.201,2.0241 0.5555,0.1706 1.5871,-0.3122 1.816,0.2088 0.1644,0.3738 -0.1314,0.6079 -0.3424,0.7187 -0.3407,0.1789 -0.5569,0.1028 -0.8559,0.1149l-0.1637 0.0204z"/>
   <path class="fil1" d="M26.6944 57.644c1,1.4413 3.0392,0.5758 2.4295,-0.7709 -0.2422,-0.535 -1.1438,-0.6508 -1.349,-1.0438 -0.1914,-0.3668 0.1288,-0.5893 0.4758,-0.578 0.3824,0.0124 0.4985,0.216 0.7728,0.3838l0.389 -0.2461c-0.0435,-0.1037 -0.0047,-0.2844 -0.4777,-0.5219 -0.2237,-0.1123 -0.4853,-0.1763 -0.7682,-0.1667 -0.587,0.0199 -0.9737,0.3275 -1.0339,0.8586 -0.1586,1.4009 2.0404,1.0732 1.3601,2.1287 -0.2744,0.1684 -0.5215,0.2059 -0.908,0.0561 -0.3102,-0.1202 -0.334,-0.2698 -0.5385,-0.4476l-0.3519 0.3478z"/>
   <path class="fil1" d="M13.0155 51.1043l0.0033 -0.4295c-0.2977,-0.3339 -0.7648,-0.1485 -1.131,-0.8157 -0.5725,-1.0434 0.6627,-2.2578 1.6909,-1.7825 0.3388,0.1565 0.5519,0.4703 0.6606,0.768 0.0448,0.1227 0.0138,0.0922 0.0654,0.2134 0.07,0.1642 0.0285,0.0859 0.1108,0.1903l0.4547 -0.0089c-0.0914,-1.6443 -1.8838,-2.4559 -3.1219,-1.3271 -0.4284,0.3905 -0.7932,1.2615 -0.4389,2.0449 0.302,0.6675 0.7392,1.0661 1.7061,1.1471z"/>
   <path class="fil1" d="M8.0247 16.3025c0.1686,0.3097 0.5854,0.7816 0.8173,1.0924 0.3216,0.4309 0.5539,0.6377 0.8374,1.1175l-2.7051 -0.4192c-0.1854,0.2714 -0.2345,0.2903 -0.275,0.5653l3.8271 0.5548c0.1846,-0.6268 -0.0021,-0.5802 -0.9065,-1.738l-1.2882 -1.6111c-0.015,-0.0126 -0.0442,-0.0338 -0.0669,-0.0495l-0.2401 0.4879z"/>
   <path class="fil1" d="M39.07 8.5702l0.5136 0.2596 0.5741 -1.3887 1.5614 0.593 0.1652 -0.4889c-0.4544,-0.2636 -1.1427,-0.3493 -1.4773,-0.6894l0.3225 -0.8156 1.6144 0.606 0.1722 -0.4536 -2.1486 -0.9181 -1.2974 3.2958z"/>
   <path class="fil1" d="M29.3226 5.145c-0.2802,-0.1605 -0.9216,-1.101 -1.0648,-1.3254l-0.6119 0.0397c0.0506,0.2411 0.7544,1.0993 0.9769,1.3898 0.5642,0.737 0.4464,0.9487 0.5116,2.0869l0.5787 -0.0073c-0.0103,-0.9048 -0.2481,-1.3058 0.146,-2.0188 0.2661,-0.4813 0.7108,-1.1636 0.8659,-1.6496l-0.6441 0.0345 -0.7583 1.4501z"/>
   <path class="fil1" d="M23.3122 4.851l0.1084 0.4413 1.1359 -0.247 0.7094 2.9319 0.5478 -0.0823 -0.6683 -2.9438c0.3002,-0.1663 0.7176,-0.2426 1.0883,-0.3144l-0.0937 -0.5259c-0.6106,0.1185 -2.4613,0.4499 -2.8278,0.7404z"/>
   <path class="fil1" d="M55.4172 19.4589l0.3988 1.1149c-0.8021,0.3898 -2.1375,0.7849 -2.7854,1.2085l0.2023 0.4844 2.7948 -1.1245c0.2522,0.3537 0.2956,0.7071 0.5157,1.0396l0.4398 -0.1614c-0.0985,-0.4295 -0.3519,-0.9196 -0.5258,-1.3601l-0.6093 -1.3347 -0.4307 0.1333z"/>
   <path class="fil1" d="M29.881 21.8439c-0.567,0.1812 -0.4792,0.0349 -0.4792,1.1737 2.7019,-0.5072 2.2272,0.0008 3.3945,-0.053 0,-0.8257 0.2091,-0.9472 -0.5287,-1.1268 -0.3319,0.3461 -0.0787,0.379 -0.4746,0.3294 -0.3072,-0.0385 -0.2165,-0.1727 -0.4105,-0.4815l-0.5525 -0.0047c-0.1846,0.237 -0.1062,0.4076 -0.3925,0.4792 -0.5642,0.141 -0.0985,-0.0666 -0.5565,-0.3164z"/>
   <path class="fil1" d="M23.8665 24.7574c-0.142,-0.0919 -0.0962,-0.0838 -0.1735,-0.16l-0.1511 -0.1452c-0.0114,-0.0103 -0.0369,-0.0319 -0.0571,-0.0454l-0.4628 0.1401 -0.0493 1.0333c1.581,-0.2398 1.7983,-0.3051 3.4015,0.0012l-0.0168 -1.0364 -0.5994 -0.0476c-0.8779,0.8413 -0.34,-0.4052 -1.2231,-0.2474 -0.5652,0.2092 0.0824,0.3739 -0.6683,0.5075z"/>
   <path class="fil1" d="M36.3727 24.4108l-0.5134 0.1556 -0.0344 0.989c0.5506,-0.0211 1.0321,-0.1972 1.6933,-0.199 0.6748,-0.0021 1.0974,0.1241 1.7054,0.2171l-0.0134 -1.0095 -0.5407 -0.1645c-0.2118,0.2688 -0.3038,0.8369 -0.8544,-0.1478l-0.5811 -0.0003c-0.4654,0.9995 -0.667,0.3536 -0.8613,0.1594z"/>
   <path class="fil1" d="M5.5583 41.0328l0.9334 2.0182 0.3661 -0.1458c-0.0231,-0.4748 -0.4507,-1.0806 -0.5857,-1.6333l2.7568 -1.1539 -0.171 -0.5157c-0.4387,0.0774 -3.0468,1.1996 -3.2996,1.4306z"/>
   <path class="fil2" d="M18.1024 30.0092c-1.0643,0.5017 -0.3507,2.195 0.8155,1.6819 1.0604,-0.4664 0.3839,-2.2472 -0.8155,-1.6819z"/>
   <path class="fil2" d="M43.2299 30.017c-1.0969,0.4769 -0.4556,2.1494 0.7299,1.7065 1.0957,-0.4094 0.4761,-2.2309 -0.7299,-1.7065z"/>
   <path class="fil2" d="M43.3879 23.6475c-0.4724,0.1394 -0.8659,0.4268 -0.6859,1.1245 0.1137,0.4406 0.564,0.8149 1.1631,0.651 1.1669,-0.319 0.662,-2.1116 -0.4772,-1.7755z"/>
   <path class="fil2" d="M43.3552 17.1394c-1.257,0.3818 -0.6362,2.1003 0.4964,1.7755 1.2028,-0.3449 0.6663,-2.1286 -0.4964,-1.7755z"/>
   <path class="fil2" d="M43.3194 36.3104c-1.1401,0.3963 -0.6776,2.1465 0.5821,1.7684 1.0514,-0.3155 0.6385,-2.1927 -0.5821,-1.7684z"/>
   <path class="fil2" d="M18.2577 23.6364c-1.2514,0.4043 -0.6176,2.1365 0.5592,1.7526 1.1093,-0.3618 0.6276,-2.1361 -0.5592,-1.7526z"/>
   <path class="fil2" d="M24.4149 45.9565c-1.0812,0.4805 -0.4137,2.1316 0.7424,1.7124 1.1145,-0.404 0.4433,-2.2392 -0.7424,-1.7124z"/>
   <path class="fil2" d="M42.4092 41.965c-1.2699,0.3929 -0.635,2.0939 0.4925,1.7798 1.1953,-0.3329 0.6593,-2.1362 -0.4925,-1.7798z"/>
   <path class="fil2" d="M19.2465 41.9962c-0.1998,0.0912 -0.1232,0.0122 -0.292,0.1411 -0.2807,0.2144 -0.3917,0.6471 -0.2641,1.0123 0.1508,0.4322 0.7119,0.7966 1.313,0.5147 0.9293,-0.4358 0.4353,-2.2123 -0.7569,-1.6681z"/>
   <path class="fil2" d="M26.6494 17.1399c-1.155,0.3553 -0.7258,2.119 0.4957,1.7755 1.2031,-0.3383 0.668,-2.1336 -0.4957,-1.7755z"/>
   <path class="fil2" d="M30.7349 49.0173c-1.1793,0.4417 -0.4893,2.1907 0.7199,1.7087 1.0269,-0.4092 0.4464,-2.1455 -0.7199,-1.7087z"/>
   <path class="fil2" d="M18.1648 36.3427c-1.2625,0.6371 -0.2701,2.1683 0.7662,1.6664 1.0799,-0.523 0.2896,-2.1991 -0.7662,-1.6664z"/>
   <path class="fil2" d="M34.9843 17.1564c-1.3416,0.5107 -0.4959,2.1523 0.6253,1.7308 0.9929,-0.3732 0.509,-2.1626 -0.6253,-1.7308z"/>
   <path class="fil2" d="M36.9788 45.9911c-0.4863,0.2305 -0.6914,0.6721 -0.5107,1.1475 0.1551,0.4083 0.6951,0.7773 1.2768,0.5191 1.0192,-0.4526 0.4035,-2.2214 -0.7661,-1.6667z"/>
   <path class="fil2" d="M18.2781 17.1569c-1.3771,0.5297 -0.4341,2.169 0.6212,1.7275 0.9765,-0.4086 0.5218,-2.1671 -0.6212,-1.7275z"/>
   <path class="fil1" d="M35.7774 28.4043c0.3217,-1.4431 -0.2518,-0.6783 -0.5698,-0.9931 -0.1911,-0.189 -0.1028,-0.2989 -0.2802,-0.5027 -0.3818,-0.4383 -0.3632,0.2766 -0.7316,-0.3054 -0.6567,-1.0374 -0.311,-0.2828 -0.7491,-0.5701 -0.4908,-0.2613 -0.0054,-0.3134 -0.6577,-0.7084 0.0071,1.0873 0.126,0.9357 1.2085,1.7579 0.5537,0.4206 1.2331,0.9906 1.7799,1.3216z"/>
   <path class="fil1" d="M44.4133 50.8592c0.2424,0.5767 1.7162,2.401 1.9789,2.9587l0.4885 -0.2684c-0.1307,-0.3307 -1.7498,-2.7099 -2.0114,-2.9593l-0.456 0.2691z"/>
   <path class="fil1" d="M26.3332 28.1655l0.1653 0.1268 2.4892 -1.8037c0.4409,-0.3199 0.3782,-0.2785 0.4147,-1.0127 -0.0146,-0.1426 0.0249,-0.1167 -0.1124,-0.086 -0.2848,0.2803 -0.291,0.6636 -0.6394,0.7089 -0.1361,0.0178 -0.2451,-0.1642 -0.4732,0.1468 -0.1484,0.2022 -0.0502,0.3423 -0.2852,0.493 -0.4506,0.2892 -0.2666,-0.405 -0.7687,0.4641 -0.0711,0.1231 -0.0729,0.1545 -0.1607,0.2311 -0.2577,0.2253 -0.0295,-0.1004 -0.6302,0.1341l0.0007 0.5975z"/>
   <path class="fil1" d="M29.474 23.276l0.2764 0.4936c1.0672,-0.0797 1.67,-0.0321 2.711,-0.0098 0.1212,-0.237 0.1717,-0.2375 0.2724,-0.4838 -0.7215,-0.4207 -2.5459,-0.3919 -3.2597,0z"/>
   <path class="fil1" d="M5.7301 20.7925c0.3616,0.2849 2.6736,1.178 3.2437,1.3871l0.2623 -0.4888 -3.3348 -1.4091 -0.1712 0.5108z"/>
   <path class="fil1" d="M23.0427 25.8536l0.2808 0.4498c0.416,0.0404 0.8706,-0.0511 1.306,-0.0534 0.4639,-0.0025 0.9808,0.0911 1.4026,0.0545l0.2855 -0.4498c-0.601,-0.4299 -2.6752,-0.4333 -3.2749,-0.0011z"/>
   <polygon class="fil1" points="20.9802,5.6172 22.245,8.9698 22.7892,8.7749 21.5162,5.4519 "/>
   <path class="fil1" d="M35.8937 25.8536c0.1337,0.2323 0.1768,0.2319 0.2812,0.4805 1.0656,-0.053 1.6302,-0.074 2.7065,0.0062 0.0956,-0.2035 0.1694,-0.2706 0.2788,-0.4867l-0.1297 -0.0728c-0.4,-0.1563 -1.0917,-0.1987 -1.5105,-0.1976 -0.5288,0.0013 -1.2667,0.0363 -1.6262,0.2705z"/>
   <path class="fil0" d="M53.2821 41.2121l0.947 0.3823c0.2671,-0.4528 0.4352,-0.8719 0.2093,-1.3341 -0.7874,-0.2274 -0.9749,0.2477 -1.1564,0.9517z"/>
   <path class="fil0" d="M13.6757 10.6745c0.27,0.3215 0.2805,0.4492 0.6443,0.7483 0.3199,-0.1926 0.4412,-0.3679 0.7611,-0.61 0.0141,-0.4595 -0.1326,-0.8529 -0.6203,-0.7581 -0.2048,0.0398 -0.4903,0.2868 -0.6214,0.423 -0.1275,0.1327 -0.0868,0.0866 -0.1636,0.1969z"/>
   <path class="fil0" d="M57.9239 30.6144l0.0724 -1.0991 -1.0887 0.0397c0.0211,0.8818 0.0863,1.7207 1.0163,1.0594z"/>
   <path class="fil5" d="M46.6838 18.9079l-0.0208 -3.8951c-0.6061,-0.1539 -3.2775,-0.0627 -4.0694,-0.0568 0.3046,0.1923 3.6098,0.0874 3.9735,0.0874 0,0.4112 -0.1298,3.497 0.1167,3.8645z"/>
   <path class="fil6" d="M15.5326 18.8412c0.2203,-0.2826 0.0935,-3.197 0.0935,-3.7532l3.0853 0.0001c0.4488,0.0023 0.7037,0.0758 0.9457,-0.1353l-4.0716 0.0293 -0.0528 3.8591z"/>
   <path class="fil7" d="M30.9145 26.8918c0.511,0 0.3593,0.0239 0.3992,-0.2658 0.0052,-0.0368 -0.0033,-0.4237 -0.0048,-0.4891 -0.0101,-0.4306 0.0049,-0.5952 -0.2668,-0.7535 -0.2037,0.4607 -0.1641,0.9677 -0.1276,1.5084z"/>
   <path class="fil2" d="M37.3509 29.4564l0.3502 0c0.063,-0.4793 0.1269,-1.2165 -0.1827,-1.4801 -0.2809,0.3507 -0.2201,0.99 -0.1674,1.4801z"/>
   <path class="fil8" d="M56.4593 35.7475c-0.5983,-0.1381 -0.907,0.2158 -0.5567,0.5535 0.3335,0.3214 0.7144,0.0429 0.5567,-0.5535z"/>
   <path class="fil1" d="M6.3583 36.318l0.0516 -0.5136c-0.9693,-0.434 -0.9664,0.9886 -0.0516,0.5136z"/>
   <path class="fil2" d="M24.545 28.2362l-0.0201 1.181 0.3043 0.0001 -0.0174 -1.1818 -0.0697 -0.2958c-0.1599,0.1133 -0.1203,-0.0364 -0.1972,0.2965z"/>
   <path class="fil9" d="M24.8118 28.2355l0.0174 1.1818 -0.3043 -0.0001 0.0201 -1.181c-0.0974,0.1556 -0.1104,0.1242 -0.1123,0.5744 -0.001,0.2275 0.0067,0.4211 0.0309,0.6465l0.4309 0.0222c0.0237,-0.2454 0.0315,-0.4413 0.0306,-0.6687 -0.0021,-0.439 0.013,-0.3739 -0.1133,-0.5751z"/>
   <path class="fil10" d="M33.2267 56.8843l0.3684 -0.0085 0.0077 -0.5517c-0.3657,-0.0308 -0.708,-0.0331 -0.9479,0.1062 0.3022,0.031 0.215,-0.0052 0.4778,-0.0142 0.1596,-0.0056 0.1047,-0.0141 0.2617,0.0086l0.1384 0.0737c-0.017,0.54 0.2106,0.1238 -0.3061,0.386z"/>
   <path class="fil11" d="M4.1906 31.3017c-0.3605,-0.1751 0.3976,0.1591 -0.1939,-0.0673l-0.2118 -0.0902c-0.0154,-0.0075 -0.0436,-0.0251 -0.0641,-0.0398l0.042 -0.4171c-0.0744,0.1157 -0.0801,0.0363 -0.1144,0.2301 -0.0364,0.2061 -0.0084,0.1664 0.0143,0.3428l0.5279 0.0415z"/>
   <path class="fil12" d="M29.4024 25.4759l0.1035 -0.1914c-0.4304,-0.0416 -0.0488,-0.0313 -0.2159,0.1054 0.1373,-0.0307 0.0977,-0.0566 0.1124,0.086z"/>
   <polygon class="fil13" points="26.4985,28.2923 26.3332,28.1655 26.3629,28.4128 "/>
  </g>
 </g>
</svg>
